<svg width="719" height="900" viewBox="0 0 719 900" fill="none" xmlns="http://www.w3.org/2000/svg">
<rect width="719" height="900" fill="#E6F7FF"/>
<path d="M492.285 284.093H444.505V267.59H492.285V284.093Z" fill="#E7E7E7"/>
<path d="M481.521 300.597H433.741V284.093H481.521V300.597Z" fill="#F0F0F0"/>
<path d="M491.517 549.201H443.737V532.697H491.517V549.201Z" fill="#E7E7E7"/>
<path d="M480.753 565.704H432.973V549.201H480.753V565.704Z" fill="#F0F0F0"/>
<path d="M340.364 275.196H292.584V258.693H340.364V275.196Z" fill="#F0F0F0"/>
<path d="M566.174 425.891H518.394V409.388H566.174V425.891Z" fill="#F0F0F0"/>
<path d="M207.578 368.045H159.798V351.542H207.578V368.045Z" fill="#F0F0F0"/>
<path d="M333.98 567.241H286.2V550.738H333.98V567.241Z" fill="#F0F0F0"/>
<mask id="mask0_309_5614" style="mask-type:luminance" maskUnits="userSpaceOnUse" x="120" y="205" width="478" height="491">
<path d="M120 205H598V696H120V205Z" fill="white"/>
</mask>
<g mask="url(#mask0_309_5614)">
<path d="M371.595 247.263C368.636 247.263 366.23 249.736 366.23 252.774V511.308C366.23 514.347 368.636 516.819 371.595 516.819H544.388C547.347 516.819 549.753 514.347 549.753 511.308V252.774C549.753 249.736 547.347 247.263 544.388 247.263H371.595ZM544.388 517.064H371.595C368.505 517.064 365.991 514.483 365.991 511.308V252.774C365.991 249.599 368.505 247.017 371.595 247.017H544.388C547.479 247.017 549.992 249.599 549.992 252.774V511.308C549.992 514.483 547.479 517.064 544.388 517.064Z" fill="#E1E1E1"/>
<path d="M172.337 247.263C169.38 247.263 166.972 249.736 166.972 252.774V511.308C166.972 514.347 169.38 516.819 172.337 516.819H345.132C348.089 516.819 350.497 514.347 350.497 511.308V252.774C350.497 249.736 348.089 247.263 345.132 247.263H172.337ZM345.132 517.064H172.337C169.248 517.064 166.733 514.483 166.733 511.308V252.774C166.733 249.599 169.248 247.017 172.337 247.017H345.132C348.221 247.017 350.736 249.599 350.736 252.774V511.308C350.736 514.483 348.221 517.064 345.132 517.064Z" fill="#E1E1E1"/>
<path d="M598 577.28H120V577.035H598V577.28Z" fill="#E1E1E1"/>
<path d="M169.398 591.043H184.752V591.289H169.398V591.043Z" fill="#E1E1E1"/>
<path d="M282.856 588.381H334.031V588.627H282.856V588.381Z" fill="#E1E1E1"/>
<path d="M185.708 600.166H220.363V600.411H185.708V600.166Z" fill="#E1E1E1"/>
<path d="M481.705 588.254H522.994V588.5H481.705V588.254Z" fill="#E1E1E1"/>
<path d="M531.512 588.254H537.564V588.5H531.512V588.254Z" fill="#E1E1E1"/>
<path d="M422.299 594.372H473.818V594.617H422.299V594.372Z" fill="#E1E1E1"/>
</g>
<mask id="mask1_309_5614" style="mask-type:luminance" maskUnits="userSpaceOnUse" x="120" y="205" width="478" height="491">
<path d="M120 205H598V696H120V205Z" fill="white"/>
</mask>
<g mask="url(#mask1_309_5614)">
<path d="M424.047 498.691C467.221 492.45 510.477 467.253 536.695 431.469C562.912 395.686 570.415 344.853 551.101 304.702C531.786 264.551 484.356 239.376 442.263 251.049C396.886 263.634 367.702 311.608 322.912 326.241C278.807 340.651 226.069 320.498 187.015 346.01C164.535 360.694 151.913 389.806 156.327 416.793C160.741 443.781 178.858 473.283 253.559 493.085C253.559 493.085 329.803 512.313 424.047 498.691Z" fill="#007CFF"/>
<mask id="mask2_309_5614" style="mask-type:luminance" maskUnits="userSpaceOnUse" x="155" y="248" width="407" height="256">
<path d="M155.454 248.183H561.947V503.569H155.454V248.183Z" fill="white"/>
</mask>
<g mask="url(#mask2_309_5614)">
<g opacity="0.899994">
<path d="M424.047 498.691C467.221 492.45 510.477 467.253 536.695 431.469C562.912 395.686 570.415 344.853 551.101 304.702C531.786 264.551 484.356 239.376 442.263 251.049C396.886 263.634 367.702 311.608 322.912 326.241C278.807 340.651 226.069 320.498 187.015 346.01C164.535 360.694 151.913 389.806 156.327 416.793C160.741 443.781 178.858 473.283 253.559 493.085C253.559 493.085 329.803 512.313 424.047 498.691Z" fill="white"/>
</g>
</g>
</g>
<mask id="mask3_309_5614" style="mask-type:luminance" maskUnits="userSpaceOnUse" x="120" y="205" width="478" height="491">
<path d="M120 205H598V696H120V205Z" fill="white"/>
</mask>
<g mask="url(#mask3_309_5614)">
<path d="M558.684 645.323C558.684 648.649 469.282 651.344 359 651.344C248.717 651.344 159.315 648.649 159.315 645.323C159.315 641.997 248.717 639.301 359 639.301C469.282 639.301 558.684 641.997 558.684 645.323Z" fill="#F5F5F5"/>
</g>
<mask id="mask4_309_5614" style="mask-type:luminance" maskUnits="userSpaceOnUse" x="120" y="205" width="478" height="491">
<path d="M120 205H598V696H120V205Z" fill="white"/>
</mask>
<g mask="url(#mask4_309_5614)">
<path d="M397.427 619.462C397.415 619.08 396.163 581.113 390.151 575.108C384.303 569.268 377.592 574.89 377.31 575.131L376.707 574.39C376.783 574.324 384.356 567.974 390.807 574.415C397.088 580.69 398.318 617.852 398.367 619.431L397.427 619.462Z" fill="#1A2E35"/>
<path d="M397.943 626.923C397.9 626.47 393.834 581.344 409.877 562.43L410.587 563.065C394.809 581.665 398.837 626.38 398.879 626.829L397.943 626.923Z" fill="#1A2E35"/>
<path d="M397.35 622.15L396.411 622.086C396.444 621.574 399.551 570.784 387.782 559.666L388.419 558.954C400.517 570.385 397.485 620.042 397.35 622.15Z" fill="#1A2E35"/>
<path d="M398.882 622.122L397.941 622.114C397.952 620.715 398.329 587.808 407.429 582.451C409.452 581.259 411.433 581.06 413.317 581.861C418.819 584.199 421.546 594.258 421.66 594.685L420.752 594.94C420.725 594.84 418.033 584.91 412.956 582.754C411.356 582.075 409.654 582.254 407.897 583.289C399.261 588.372 398.884 621.785 398.882 622.122Z" fill="#1A2E35"/>
<path d="M395.337 622.146L394.399 622.091C394.413 621.831 395.771 596.086 389.007 587.014C387.368 584.818 385.589 583.77 383.71 583.904C379.278 584.223 375.561 590.885 375.524 590.952L374.704 590.476C374.866 590.183 378.706 583.296 383.643 582.941C385.851 582.78 387.91 583.955 389.754 586.428C396.73 595.783 395.398 621.074 395.337 622.146Z" fill="#1A2E35"/>
<path d="M396.821 625.647C396.636 623.149 392.399 564.365 399.855 554.007L400.611 554.58C393.361 564.652 397.715 624.966 397.759 625.574L396.821 625.647Z" fill="#1A2E35"/>
<path d="M416.694 585.107C416.694 585.107 411.936 586.913 413.551 590.8C418.103 601.751 428.952 602.917 428.952 602.917C428.952 602.917 434.043 594.639 429.87 588.21C424.117 579.346 416.815 582.245 416.694 585.107Z" fill="#007CFF"/>
<path d="M395.899 580.206C395.899 580.206 400.662 580.001 400.934 584.218C401.204 588.434 390.615 600.101 390.615 600.101C390.615 600.101 383.057 597.294 384.681 586.772C386.304 576.25 394.716 577.613 395.899 580.206Z" fill="#007CFF"/>
<path d="M398.209 555.633C398.209 555.633 396.209 555.381 395.455 553.531C393.212 548.015 400.924 542.067 411.235 545.21C411.235 545.21 411.508 554.531 405.959 558.206C400.41 561.883 398.209 555.633 398.209 555.633Z" fill="#007CFF"/>
<path d="M380.539 584.538C380.539 584.538 382.198 582.2 379.691 581.971C377.182 581.742 366.325 586.739 369.179 598.179C369.179 598.179 383.145 593.5 383.629 588.71C384.113 583.921 380.539 584.538 380.539 584.538Z" fill="#007CFF"/>
<path d="M410.312 559.726C410.312 559.726 410.939 557.603 413.305 556.716C415.67 555.828 424.456 556.385 424.578 568.195C424.578 568.195 411.061 570.503 409.388 566.004C407.715 561.505 410.312 559.726 410.312 559.726Z" fill="#007CFF"/>
<path d="M403.016 569.539C403.016 569.539 403.925 567.92 405.662 568.786C407.399 569.653 412.518 575.063 407.636 581.597C407.636 581.597 398.564 575.993 399.305 572.06C399.989 568.437 403.016 569.539 403.016 569.539Z" fill="#007CFF"/>
<path d="M380.79 572.387C380.79 572.387 382.099 570.624 380.181 570.406C378.262 570.187 369.664 572.544 371.667 581.362C371.667 581.362 382.141 580.553 382.591 576.89C383.04 573.227 380.79 572.387 380.79 572.387Z" fill="#007CFF"/>
<path d="M410.743 645.707H385.138L382.376 618.493H413.505L410.743 645.707Z" fill="#1A2E35"/>
<path d="M417.811 622.22H378.071V614.763H417.811V622.22Z" fill="#1A2E35"/>
<mask id="mask5_309_5614" style="mask-type:luminance" maskUnits="userSpaceOnUse" x="389" y="579" width="8" height="18">
<path d="M389.309 579.961H396.139V596.459H389.309V579.961Z" fill="white"/>
</mask>
<g mask="url(#mask5_309_5614)">
<g opacity="0.300003">
<path d="M389.679 596.214C388.894 590.479 391.72 584.094 395.9 580.206" stroke="black" stroke-width="0.666667" stroke-miterlimit="10" stroke-linecap="round" stroke-linejoin="round"/>
</g>
</g>
<mask id="mask6_309_5614" style="mask-type:luminance" maskUnits="userSpaceOnUse" x="402" y="569" width="6" height="10">
<path d="M402.777 569.617H407.525V578.276H402.777V569.617Z" fill="white"/>
</mask>
<g mask="url(#mask6_309_5614)">
<g opacity="0.300003">
<path d="M403.017 569.862C405.182 572.072 406.689 574.955 407.286 578.03" stroke="black" stroke-width="0.666667" stroke-miterlimit="10" stroke-linecap="round" stroke-linejoin="round"/>
</g>
</g>
<mask id="mask7_309_5614" style="mask-type:luminance" maskUnits="userSpaceOnUse" x="416" y="584" width="12" height="12">
<path d="M416.456 584.861H427.388V595.857H416.456V584.861Z" fill="white"/>
</mask>
<g mask="url(#mask7_309_5614)">
<g opacity="0.300003">
<path d="M416.695 585.107C421.015 587.077 425.08 591.247 427.15 595.612" stroke="black" stroke-width="0.666667" stroke-miterlimit="10" stroke-linecap="round" stroke-linejoin="round"/>
</g>
</g>
<mask id="mask8_309_5614" style="mask-type:luminance" maskUnits="userSpaceOnUse" x="410" y="559" width="13" height="7">
<path d="M410.073 559.221H422.293V565.336H410.073V559.221Z" fill="white"/>
</mask>
<g mask="url(#mask8_309_5614)">
<g opacity="0.300003">
<path d="M410.312 559.726C412.549 559.067 414.57 559.771 416.745 560.623C418.919 561.475 420.812 563.067 422.054 565.089" stroke="black" stroke-width="0.666667" stroke-miterlimit="10" stroke-linecap="round" stroke-linejoin="round"/>
</g>
</g>
<path d="M391.354 561.716C391.354 561.716 394.525 562.105 394.709 560.109C394.893 558.115 384.225 550.35 375.472 556.769C375.472 556.769 378.167 565.673 384.578 567.293C390.989 568.915 391.354 561.716 391.354 561.716Z" fill="#007CFF"/>
<mask id="mask9_309_5614" style="mask-type:luminance" maskUnits="userSpaceOnUse" x="376" y="556" width="16" height="7">
<path d="M376.707 556.256H391.494V562.124H376.707V556.256Z" fill="white"/>
</mask>
<g mask="url(#mask9_309_5614)">
<g opacity="0.300003">
<path d="M391.255 561.878C387.92 557.274 379.733 555.777 376.946 556.815" stroke="black" stroke-width="0.666667" stroke-miterlimit="10" stroke-linecap="round" stroke-linejoin="round"/>
</g>
</g>
<mask id="mask10_309_5614" style="mask-type:luminance" maskUnits="userSpaceOnUse" x="373" y="572" width="9" height="7">
<path d="M373.508 572.301H381.125V578.17H373.508V572.301Z" fill="white"/>
</mask>
<g mask="url(#mask10_309_5614)">
<g opacity="0.300003">
<path d="M380.886 572.547C378.164 573.586 375.258 575.378 373.747 577.925" stroke="black" stroke-width="0.666667" stroke-miterlimit="10" stroke-linecap="round" stroke-linejoin="round"/>
</g>
</g>
<mask id="mask11_309_5614" style="mask-type:luminance" maskUnits="userSpaceOnUse" x="370" y="584" width="11" height="11">
<path d="M370.434 584.155H380.849V594.082H370.434V584.155Z" fill="white"/>
</mask>
<g mask="url(#mask11_309_5614)">
<g opacity="0.300003">
<path d="M370.672 593.836C372.799 589.645 376.376 586.25 380.611 584.4" stroke="black" stroke-width="0.666667" stroke-miterlimit="10" stroke-linecap="round" stroke-linejoin="round"/>
</g>
</g>
<mask id="mask12_309_5614" style="mask-type:luminance" maskUnits="userSpaceOnUse" x="398" y="547" width="10" height="9">
<path d="M398.39 547.26H407.643V555.656H398.39V547.26Z" fill="white"/>
</mask>
<g mask="url(#mask12_309_5614)">
<g opacity="0.300003">
<path d="M398.629 555.411C400.327 551.687 403.588 548.749 407.404 547.506" stroke="black" stroke-width="0.666667" stroke-miterlimit="10" stroke-linecap="round" stroke-linejoin="round"/>
</g>
</g>
<mask id="mask13_309_5614" style="mask-type:luminance" maskUnits="userSpaceOnUse" x="382" y="622" width="32" height="6">
<path d="M382.755 622.215H413.127V627.106H382.755V622.215Z" fill="white"/>
</mask>
<g mask="url(#mask13_309_5614)">
<g opacity="0.300003">
<path d="M382.755 622.221L383.251 627.106H412.631L413.127 622.215L382.755 622.221Z" fill="black"/>
</g>
</g>
</g>
<mask id="mask14_309_5614" style="mask-type:luminance" maskUnits="userSpaceOnUse" x="120" y="205" width="478" height="491">
<path d="M120 205H598V696H120V205Z" fill="white"/>
</mask>
<g mask="url(#mask14_309_5614)">
<path d="M322.089 647.187H258.446C256.849 647.187 255.554 645.857 255.554 644.216V603.675C255.554 602.034 256.849 600.704 258.446 600.704H322.089C323.686 600.704 324.981 602.034 324.981 603.675V644.216C324.981 645.857 323.686 647.187 322.089 647.187Z" fill="#007CFF"/>
<mask id="mask15_309_5614" style="mask-type:luminance" maskUnits="userSpaceOnUse" x="255" y="600" width="70" height="48">
<path d="M255.554 600.704H324.981V647.187H255.554V600.704Z" fill="white"/>
</mask>
<g mask="url(#mask15_309_5614)">
<g opacity="0.5">
<path d="M322.089 647.187H258.446C256.849 647.187 255.554 645.857 255.554 644.216V603.675C255.554 602.034 256.849 600.704 258.446 600.704H322.089C323.686 600.704 324.981 602.034 324.981 603.675V644.216C324.981 645.857 323.686 647.187 322.089 647.187Z" fill="white"/>
</g>
</g>
<path d="M311.184 610.76H270.183V608.082H311.184V610.76Z" fill="#007CFF"/>
<path d="M266.775 609.421C266.775 610.438 265.973 611.261 264.984 611.261C263.995 611.261 263.194 610.438 263.194 609.421C263.194 608.405 263.995 607.582 264.984 607.582C265.973 607.582 266.775 608.405 266.775 609.421Z" fill="#007CFF"/>
<path d="M287.915 640.36H265.166V616.992H287.915V640.36Z" fill="#007CFF"/>
<mask id="mask16_309_5614" style="mask-type:luminance" maskUnits="userSpaceOnUse" x="265" y="616" width="23" height="25">
<path d="M265.167 616.992H287.915V640.36H265.167V616.992Z" fill="white"/>
</mask>
<g mask="url(#mask16_309_5614)">
<g opacity="0.399994">
<path d="M287.915 640.36H265.166V616.992H287.915V640.36Z" fill="white"/>
</g>
</g>
<path d="M286.612 639.021H266.47V618.332H286.612V639.021Z" fill="#007CFF"/>
<mask id="mask17_309_5614" style="mask-type:luminance" maskUnits="userSpaceOnUse" x="266" y="618" width="21" height="22">
<path d="M266.47 618.331H286.612V639.021H266.47V618.331Z" fill="white"/>
</mask>
<g mask="url(#mask17_309_5614)">
<g opacity="0.699997">
<path d="M286.612 639.021H266.47V618.332H286.612V639.021Z" fill="white"/>
</g>
</g>
<path d="M266.47 639.021L273.312 629.673L277.84 632.857L283.302 626.651L286.612 629.828V639.021H266.47Z" fill="#007CFF"/>
<path d="M279.037 623.308C279.037 624.724 277.92 625.872 276.541 625.872C275.162 625.872 274.045 624.724 274.045 623.308C274.045 621.892 275.162 620.744 276.541 620.744C277.92 620.744 279.037 621.892 279.037 623.308Z" fill="#007CFF"/>
<path d="M318.999 628.676H292.756V625.998H318.999V628.676Z" fill="#1A2E35"/>
<path d="M304.206 635.942H292.756V633.264H304.206V635.942Z" fill="#1A2E35"/>
<path d="M318.999 621.411H292.756V618.733H318.999V621.411Z" fill="#1A2E35"/>
<path d="M351.633 647.187H274.89C273.294 647.187 271.999 645.857 271.999 644.216V594.903C271.999 593.263 273.294 591.933 274.89 591.933H351.633C353.231 591.933 354.525 593.263 354.525 594.903V644.216C354.525 645.857 353.231 647.187 351.633 647.187Z" fill="#007CFF"/>
<mask id="mask18_309_5614" style="mask-type:luminance" maskUnits="userSpaceOnUse" x="271" y="591" width="84" height="57">
<path d="M272 591.933H354.525V647.187H272V591.933Z" fill="white"/>
</mask>
<g mask="url(#mask18_309_5614)">
<g opacity="0.699997">
<path d="M351.634 647.187H274.891C273.294 647.187 271.999 645.857 271.999 644.216V594.903C271.999 593.263 273.294 591.933 274.891 591.933H351.634C353.231 591.933 354.526 593.263 354.526 594.903V644.216C354.526 645.857 353.231 647.187 351.634 647.187Z" fill="white"/>
</g>
</g>
<path d="M338.125 603.887H289.388V600.705H338.125V603.887Z" fill="#007CFF"/>
<path d="M285.338 602.296C285.338 603.503 284.385 604.482 283.209 604.482C282.033 604.482 281.081 603.503 281.081 602.296C281.081 601.088 282.033 600.109 283.209 600.109C284.385 600.109 285.338 601.088 285.338 602.296Z" fill="#007CFF"/>
<path d="M310.466 639.071H283.424V611.294H310.466V639.071Z" fill="#007CFF"/>
<mask id="mask19_309_5614" style="mask-type:luminance" maskUnits="userSpaceOnUse" x="283" y="611" width="28" height="29">
<path d="M283.424 611.295H310.466V639.072H283.424V611.295Z" fill="white"/>
</mask>
<g mask="url(#mask19_309_5614)">
<g opacity="0.399994">
<path d="M310.466 639.071H283.424V611.294H310.466V639.071Z" fill="white"/>
</g>
</g>
<path d="M308.916 637.48H284.974V612.887H308.916V637.48Z" fill="#007CFF"/>
<mask id="mask20_309_5614" style="mask-type:luminance" maskUnits="userSpaceOnUse" x="284" y="612" width="25" height="26">
<path d="M284.974 612.887H308.916V637.48H284.974V612.887Z" fill="white"/>
</mask>
<g mask="url(#mask20_309_5614)">
<g opacity="0.699997">
<path d="M308.916 637.481H284.974V612.888H308.916V637.481Z" fill="white"/>
</g>
</g>
<path d="M284.974 637.48L293.108 626.369L298.491 630.154L304.982 622.777L308.916 626.554V637.48H284.974Z" fill="#007CFF"/>
<path d="M299.912 618.802C299.912 620.485 298.584 621.85 296.945 621.85C295.306 621.85 293.978 620.485 293.978 618.802C293.978 617.119 295.306 615.754 296.945 615.754C298.584 615.754 299.912 617.119 299.912 618.802Z" fill="#007CFF"/>
<path d="M347.414 625.184H316.219V622.001H347.414V625.184Z" fill="#1A2E35"/>
<path d="M329.831 633.82H316.22V630.637H329.831V633.82Z" fill="#1A2E35"/>
<path d="M347.414 616.547H316.219V613.365H347.414V616.547Z" fill="#1A2E35"/>
</g>
<mask id="mask21_309_5614" style="mask-type:luminance" maskUnits="userSpaceOnUse" x="120" y="205" width="478" height="491">
<path d="M120 205H598V696H120V205Z" fill="white"/>
</mask>
<g mask="url(#mask21_309_5614)">
<path d="M505.308 537.998H216.051C212.5 537.998 209.623 535.041 209.623 531.394V305.177C209.623 301.531 212.5 298.574 216.051 298.574H505.308C508.858 298.574 511.737 301.531 511.737 305.177V531.394C511.737 535.041 508.858 537.998 505.308 537.998Z" fill="#007CFF"/>
<mask id="mask22_309_5614" style="mask-type:luminance" maskUnits="userSpaceOnUse" x="209" y="298" width="303" height="240">
<path d="M209.623 298.574H511.737V537.997H209.623V298.574Z" fill="white"/>
</mask>
<g mask="url(#mask22_309_5614)">
<g opacity="0.600006">
<path d="M505.308 537.998H216.051C212.501 537.998 209.623 535.041 209.623 531.394V305.177C209.623 301.531 212.501 298.574 216.051 298.574H505.308C508.859 298.574 511.737 301.531 511.737 305.177V531.394C511.737 535.041 508.859 537.998 505.308 537.998Z" fill="white"/>
</g>
</g>
<path d="M483.364 378.98H421.258C419.662 378.98 418.367 377.65 418.367 376.009V349.315C418.367 347.674 419.662 346.344 421.258 346.344H483.364C484.961 346.344 486.256 347.674 486.256 349.315V376.009C486.256 377.65 484.961 378.98 483.364 378.98Z" fill="white"/>
<path d="M472.764 356.178H432.671V353.56H472.764V356.178Z" fill="#007CFF"/>
<path d="M477.759 364.451H425.837V361.833H477.759V364.451Z" fill="#1A2E35"/>
<path d="M451.499 371.416H425.837V368.798H451.499V371.416Z" fill="#1A2E35"/>
<path d="M429.339 354.868C429.339 355.862 428.555 356.667 427.588 356.667C426.621 356.667 425.836 355.862 425.836 354.868C425.836 353.875 426.621 353.069 427.588 353.069C428.555 353.069 429.339 353.875 429.339 354.868Z" fill="#007CFF"/>
<path d="M511.736 312.501H209.556V302.668C209.556 300.032 211.636 297.895 214.201 297.895H508.027C510.076 297.895 511.736 299.602 511.736 301.706V312.501Z" fill="#007CFF"/>
<mask id="mask23_309_5614" style="mask-type:luminance" maskUnits="userSpaceOnUse" x="498" y="302" width="7" height="7">
<path d="M498.486 302.095H504.529V308.303H498.486V302.095Z" fill="white"/>
</mask>
<g mask="url(#mask23_309_5614)">
<g opacity="0.300003">
<path d="M504.529 305.199C504.529 306.913 503.176 308.302 501.508 308.302C499.839 308.302 498.486 306.913 498.486 305.199C498.486 303.486 499.839 302.096 501.508 302.096C503.176 302.096 504.529 303.486 504.529 305.199Z" fill="white"/>
</g>
</g>
<mask id="mask24_309_5614" style="mask-type:luminance" maskUnits="userSpaceOnUse" x="489" y="302" width="7" height="7">
<path d="M489.899 302.095H495.942V308.303H489.899V302.095Z" fill="white"/>
</mask>
<g mask="url(#mask24_309_5614)">
<g opacity="0.300003">
<path d="M495.942 305.199C495.942 306.913 494.589 308.302 492.921 308.302C491.252 308.302 489.899 306.913 489.899 305.199C489.899 303.486 491.252 302.096 492.921 302.096C494.589 302.096 495.942 303.486 495.942 305.199Z" fill="white"/>
</g>
</g>
<mask id="mask25_309_5614" style="mask-type:luminance" maskUnits="userSpaceOnUse" x="481" y="302" width="7" height="7">
<path d="M481.312 302.095H487.355V308.303H481.312V302.095Z" fill="white"/>
</mask>
<g mask="url(#mask25_309_5614)">
<g opacity="0.300003">
<path d="M487.355 305.199C487.355 306.913 486.003 308.302 484.334 308.302C482.665 308.302 481.312 306.913 481.312 305.199C481.312 303.486 482.665 302.096 484.334 302.096C486.003 302.096 487.355 303.486 487.355 305.199Z" fill="white"/>
</g>
</g>
<path d="M256.758 291.391H280.468" stroke="#007CFF" stroke-width="1.33333" stroke-miterlimit="10" stroke-linecap="round" stroke-linejoin="round"/>
<path d="M286.999 291.391H291.936" stroke="#007CFF" stroke-width="1.33333" stroke-miterlimit="10" stroke-linecap="round" stroke-linejoin="round"/>
<path d="M308.432 528.435H223.979V330.742H308.432V528.435Z" stroke="#007CFF" stroke-width="1.33333" stroke-miterlimit="10"/>
<path d="M400.926 528.435H316.474V330.742H400.926V528.435Z" stroke="#007CFF" stroke-width="1.33333" stroke-miterlimit="10"/>
<path d="M493.421 528.435H408.969V330.742H493.421V528.435Z" stroke="#007CFF" stroke-width="1.33333" stroke-miterlimit="10"/>
<path d="M296.745 376.859H234.64C233.043 376.859 231.749 375.529 231.749 373.888V347.194C231.749 345.553 233.043 344.223 234.64 344.223H296.745C298.343 344.223 299.637 345.553 299.637 347.194V373.888C299.637 375.529 298.343 376.859 296.745 376.859Z" fill="white"/>
<path d="M286.145 354.056H246.052V351.438H286.145V354.056Z" fill="#007CFF"/>
<path d="M291.141 362.33H239.219V359.712H291.141V362.33Z" fill="#1A2E35"/>
<path d="M264.881 369.293H239.219V366.675H264.881V369.293Z" fill="#1A2E35"/>
<path d="M242.721 352.747C242.721 353.741 241.937 354.546 240.97 354.546C240.003 354.546 239.219 353.741 239.219 352.747C239.219 351.753 240.003 350.948 240.97 350.948C241.937 350.948 242.721 351.753 242.721 352.747Z" fill="#007CFF"/>
<path d="M296.745 499.976H234.64C233.043 499.976 231.749 498.646 231.749 497.006V470.311C231.749 468.67 233.043 467.34 234.64 467.34H296.745C298.343 467.34 299.637 468.67 299.637 470.311V497.006C299.637 498.646 298.343 499.976 296.745 499.976Z" fill="white"/>
<path d="M286.145 477.174H246.052V474.556H286.145V477.174Z" fill="#007CFF"/>
<path d="M291.141 485.447H239.219V482.829H291.141V485.447Z" fill="#1A2E35"/>
<path d="M264.881 492.412H239.219V489.794H264.881V492.412Z" fill="#1A2E35"/>
<path d="M242.721 475.865C242.721 476.858 241.937 477.664 240.97 477.664C240.003 477.664 239.219 476.858 239.219 475.865C239.219 474.871 240.003 474.066 240.97 474.066C241.937 474.066 242.721 474.871 242.721 475.865Z" fill="#007CFF"/>
<path d="M389.753 447.384H327.648C326.051 447.384 324.756 446.055 324.756 444.414V404.901C324.756 403.261 326.051 401.931 327.648 401.931H389.753C391.35 401.931 392.645 403.261 392.645 404.901V444.414C392.645 446.055 391.35 447.384 389.753 447.384Z" fill="white"/>
<path d="M379.153 411.764H339.061V409.146H379.153V411.764Z" fill="#007CFF"/>
<path d="M335.728 410.455C335.728 411.449 334.944 412.254 333.977 412.254C333.01 412.254 332.227 411.449 332.227 410.455C332.227 409.461 333.01 408.656 333.977 408.656C334.944 408.656 335.728 409.461 335.728 410.455Z" fill="#007CFF"/>
<path d="M389.753 393.977H327.648C326.051 393.977 324.756 392.647 324.756 391.006V351.493C324.756 349.853 326.051 348.524 327.648 348.524H389.753C391.35 348.524 392.645 349.853 392.645 351.493V391.006C392.645 392.647 391.35 393.977 389.753 393.977Z" fill="white"/>
<path d="M379.153 358.357H339.061V355.739H379.153V358.357Z" fill="#007CFF"/>
<path d="M335.728 357.048C335.728 358.041 334.944 358.847 333.977 358.847C333.01 358.847 332.227 358.041 332.227 357.048C332.227 356.054 333.01 355.249 333.977 355.249C334.944 355.249 335.728 356.054 335.728 357.048Z" fill="#007CFF"/>
<path d="M356.399 387.3H334.154V364.45H356.399V387.3Z" fill="#007CFF"/>
<mask id="mask26_309_5614" style="mask-type:luminance" maskUnits="userSpaceOnUse" x="334" y="364" width="23" height="24">
<path d="M334.155 364.451H356.399V387.3H334.155V364.451Z" fill="white"/>
</mask>
<g mask="url(#mask26_309_5614)">
<g opacity="0.399994">
<path d="M356.399 387.3H334.154V364.45H356.399V387.3Z" fill="white"/>
</g>
</g>
<path d="M355.125 385.992H335.43V365.761H355.125V385.992Z" fill="#007CFF"/>
<mask id="mask27_309_5614" style="mask-type:luminance" maskUnits="userSpaceOnUse" x="335" y="365" width="21" height="21">
<path d="M335.43 365.761H355.125V385.992H335.43V365.761Z" fill="white"/>
</mask>
<g mask="url(#mask27_309_5614)">
<g opacity="0.699997">
<path d="M355.125 385.992H335.43V365.761H355.125V385.992Z" fill="white"/>
</g>
</g>
<path d="M335.43 385.992L342.121 376.851L346.549 379.964L351.889 373.895L355.125 377.002V385.992H335.43Z" fill="#007CFF"/>
<path d="M347.719 370.626C347.719 372.011 346.626 373.133 345.278 373.133C343.93 373.133 342.836 372.011 342.836 370.626C342.836 369.242 343.93 368.119 345.278 368.119C346.626 368.119 347.719 369.242 347.719 370.626Z" fill="#007CFF"/>
<path d="M386.795 375.876H361.133V373.258H386.795V375.876Z" fill="#1A2E35"/>
<path d="M372.329 382.98H361.133V380.362H372.329V382.98Z" fill="#1A2E35"/>
<path d="M386.795 368.771H361.133V366.153H386.795V368.771Z" fill="#1A2E35"/>
<path d="M356.4 428.69L360.738 416.449C362.354 417.053 363.833 417.989 365.086 419.198C366.339 420.408 367.339 421.867 368.027 423.487L356.4 428.69Z" fill="#007CFF"/>
<mask id="mask28_309_5614" style="mask-type:luminance" maskUnits="userSpaceOnUse" x="356" y="416" width="13" height="13">
<path d="M356.4 416.449H368.027V428.691H356.4V416.449Z" fill="white"/>
</mask>
<g mask="url(#mask28_309_5614)">
<g opacity="0.600006">
<path d="M356.4 428.69L360.739 416.449C362.354 417.053 363.833 417.989 365.087 419.198C366.34 420.408 367.34 421.867 368.027 423.487L356.4 428.69Z" fill="white"/>
</g>
</g>
<path d="M356.4 428.691L360.096 441.152C358.898 441.527 357.652 441.718 356.4 441.718C349.443 441.718 343.718 435.838 343.718 428.691C343.718 421.545 349.443 415.663 356.4 415.663C357.859 415.663 359.307 415.922 360.681 416.428L356.4 428.691Z" fill="#007CFF"/>
<path d="M356.4 428.69L368.051 423.544C368.731 425.17 369.082 426.921 369.082 428.69C369.082 434.388 365.444 439.455 360.145 441.137L356.4 428.69Z" fill="#007CFF"/>
<mask id="mask29_309_5614" style="mask-type:luminance" maskUnits="userSpaceOnUse" x="356" y="423" width="14" height="19">
<path d="M356.4 423.544H369.082V441.137H356.4V423.544Z" fill="white"/>
</mask>
<g mask="url(#mask29_309_5614)">
<g opacity="0.300003">
<path d="M356.4 428.691L368.051 423.544C368.732 425.17 369.083 426.921 369.083 428.691C369.083 434.388 365.444 439.456 360.145 441.138L356.4 428.691Z" fill="black"/>
</g>
</g>
<path d="M438.582 407.658H420.884V389.478H438.582V407.658Z" fill="#007CFF"/>
<path d="M346.251 475.561H328.552V457.381H346.251V475.561Z" fill="#007CFF"/>
<path d="M367.677 475.561H349.979V457.381H367.677V475.561Z" fill="#007CFF"/>
<path d="M389.996 475.561H372.298V457.381H389.996V475.561Z" fill="#1A2E35"/>
<path d="M346.351 499.011H328.653V480.831H346.351V499.011Z" fill="white"/>
<path d="M461.567 407.658H443.868V389.478H461.567V407.658Z" fill="white"/>
</g>
<mask id="mask30_309_5614" style="mask-type:luminance" maskUnits="userSpaceOnUse" x="120" y="205" width="478" height="491">
<path d="M120 205H598V696H120V205Z" fill="white"/>
</mask>
<g mask="url(#mask30_309_5614)">
<path d="M240.63 303.27C234.475 320.909 215.565 330.083 198.394 323.761C181.222 317.437 172.291 298.013 178.446 280.375C184.601 262.736 203.51 253.562 220.683 259.884C237.854 266.207 246.785 285.631 240.63 303.27Z" fill="#007CFF"/>
<mask id="mask31_309_5614" style="mask-type:luminance" maskUnits="userSpaceOnUse" x="176" y="257" width="67" height="69">
<path d="M176.5 257.886H242.576V325.759H176.5V257.886Z" fill="white"/>
</mask>
<g mask="url(#mask31_309_5614)">
<g opacity="0.300003">
<path d="M240.63 303.27C234.476 320.909 215.566 330.083 198.394 323.761C181.223 317.437 172.292 298.013 178.446 280.375C184.601 262.736 203.511 253.562 220.683 259.884C237.854 266.207 246.785 285.631 240.63 303.27Z" fill="black"/>
</g>
</g>
<path d="M238.285 302.406C232.13 320.045 213.219 329.219 196.049 322.897C178.876 316.574 169.946 297.15 176.101 279.511C182.255 261.872 201.165 252.698 218.337 259.021C235.508 265.344 244.439 284.768 238.285 302.406Z" fill="#007CFF"/>
<path d="M233.024 300.47C227.91 315.124 212.2 322.745 197.934 317.493C183.667 312.24 176.248 296.103 181.361 281.448C186.475 266.795 202.185 259.174 216.451 264.425C230.718 269.678 238.137 285.815 233.024 300.47Z" fill="white"/>
<path d="M213.477 274.74L213.114 274.597L215.384 268.324C215.553 268.389 215.722 268.455 215.89 268.523L213.477 274.74ZM205.038 273.648L204.21 267.01C204.396 266.986 204.58 266.964 204.767 266.945L205.408 273.605C205.284 273.617 205.161 273.632 205.038 273.648ZM220.089 279.595C220.006 279.496 219.923 279.4 219.839 279.303L224.674 274.818C224.798 274.959 224.919 275.101 225.039 275.244L220.089 279.595ZM197.455 276.653L193.717 271.173C193.861 271.069 194.006 270.967 194.151 270.867L197.792 276.416L197.455 276.653ZM223.751 287.048L223.657 286.651L229.977 285.025C230.02 285.203 230.062 285.38 230.102 285.559L223.751 287.048ZM192.096 282.947L186.316 279.859L186.562 279.386L192.288 282.576L192.096 282.947ZM223.63 295.385C223.662 295.263 223.691 295.14 223.719 295.018L230.06 296.559C230.017 296.746 229.971 296.933 229.923 297.118L223.63 295.385ZM183.689 291.104C183.688 290.918 183.689 290.732 183.691 290.546L190.206 290.653C190.203 290.785 190.203 290.918 190.204 291.05L183.689 291.104ZM224.498 307.297L219.696 302.773L219.96 302.472L224.923 306.807L224.812 306.937C224.739 307.025 224.618 307.162 224.498 307.297ZM186.436 302.299C186.352 302.136 186.269 301.971 186.188 301.806L192.009 298.799L192.189 299.158L186.436 302.299ZM215.133 313.686L212.923 307.392L213.304 307.246L215.627 313.499C215.462 313.563 215.298 313.626 215.133 313.686ZM193.942 310.902C193.792 310.796 193.642 310.689 193.494 310.578L197.301 305.15C197.406 305.226 197.511 305.302 197.617 305.376L193.942 310.902ZM203.944 314.873L204.838 308.244C204.966 308.262 205.093 308.279 205.222 308.293L204.485 314.942C204.304 314.922 204.123 314.898 203.944 314.873Z" fill="black"/>
<path d="M196.5 284.677L207.342 292.104L212.314 277.804" stroke="black" stroke-width="1.33333" stroke-miterlimit="10" stroke-linecap="round" stroke-linejoin="round"/>
<path d="M209.283 291.71C208.987 292.833 207.863 293.497 206.77 293.193C205.678 292.891 205.032 291.735 205.327 290.612C205.621 289.491 206.747 288.827 207.839 289.13C208.931 289.433 209.578 290.588 209.283 291.71Z" fill="black"/>
<mask id="mask32_309_5614" style="mask-type:luminance" maskUnits="userSpaceOnUse" x="179" y="262" width="49" height="50">
<path d="M179.701 262.57H227.248V311.631H179.701V262.57Z" fill="white"/>
</mask>
<g mask="url(#mask32_309_5614)">
<g opacity="0.300003">
<path d="M182.973 282.955C188.086 268.301 203.796 260.68 218.063 265.933C221.567 267.223 224.653 269.177 227.248 271.598C224.351 268.387 220.696 265.81 216.406 264.231C202.14 258.978 186.43 266.599 181.316 281.254C177.459 292.307 180.739 304.198 188.702 311.632C181.965 304.163 179.397 293.203 182.973 282.955Z" fill="black"/>
</g>
</g>
</g>
<mask id="mask33_309_5614" style="mask-type:luminance" maskUnits="userSpaceOnUse" x="120" y="205" width="478" height="491">
<path d="M120 205H598V696H120V205Z" fill="white"/>
</mask>
<g mask="url(#mask33_309_5614)">
<path d="M539.364 332.457H517.012C511.279 332.457 506.632 337.23 506.632 343.118V355.984C506.632 361.872 511.279 366.646 517.012 366.646H522.096L522.907 372.591L529.076 366.646H539.364C545.096 366.646 549.742 361.872 549.742 355.984V343.118C549.742 337.23 545.096 332.457 539.364 332.457Z" fill="#007CFF"/>
<path d="M533.466 349.593C533.466 351.108 534.662 352.337 536.138 352.337C537.613 352.337 538.809 351.108 538.809 349.593C538.809 348.077 537.613 346.849 536.138 346.849C534.662 346.849 533.466 348.077 533.466 349.593Z" fill="white"/>
<path d="M524.364 349.593C524.364 351.108 525.56 352.337 527.035 352.337C528.511 352.337 529.707 351.108 529.707 349.593C529.707 348.077 528.511 346.849 527.035 346.849C525.56 346.849 524.364 348.077 524.364 349.593Z" fill="white"/>
<path d="M515.022 349.593C515.022 351.108 516.218 352.337 517.694 352.337C519.17 352.337 520.366 351.108 520.366 349.593C520.366 348.077 519.17 346.849 517.694 346.849C516.218 346.849 515.022 348.077 515.022 349.593Z" fill="white"/>
<path d="M539.941 330.374H525.764C525.302 330.374 525.301 331.11 525.764 331.11H539.941C540.403 331.11 540.403 330.374 539.941 330.374Z" fill="#007CFF"/>
<path d="M523.985 330.374H522.798C522.61 330.374 522.431 330.543 522.439 330.742C522.448 330.941 522.596 331.11 522.798 331.11H523.985C524.172 331.11 524.352 330.941 524.344 330.742C524.335 330.543 524.186 330.374 523.985 330.374Z" fill="#007CFF"/>
</g>
<mask id="mask34_309_5614" style="mask-type:luminance" maskUnits="userSpaceOnUse" x="120" y="205" width="478" height="491">
<path d="M120 205H598V696H120V205Z" fill="white"/>
</mask>
<g mask="url(#mask34_309_5614)">
<path d="M527.631 469.622C527.631 469.622 527.142 478.296 523.017 493.497C520.43 502.891 517.29 512.115 513.615 521.118C511.559 526.204 509.197 531.603 506.487 537.282C505.268 539.863 503.963 542.49 502.591 545.184C501.014 591.191 475.877 637.959 475.877 637.959C474.484 638.698 469.62 637.892 469.653 636.44C473.374 630.37 480.697 571.418 485.42 543.451C485.714 539.651 486.139 535.627 486.661 531.368C488.043 520.079 490.089 507.805 492.101 497.008C495.225 479.995 498.196 466.66 498.196 466.66L506.477 467.487L527.631 469.622Z" fill="#EEC0BA"/>
<path d="M537.512 533.313C536.844 538.261 535.985 543.555 534.932 549.197C543.91 579.97 525.444 640.028 525.444 640.028C522.321 640.665 519.557 640.251 518.153 639.167C521.635 621.07 519.133 574.023 516.422 545.91C516.183 543.362 515.878 540.556 515.552 537.561C514.997 532.486 514.333 526.897 513.626 521.117C512.429 511.45 511.091 501.277 509.882 492.257C508.402 481.358 507.118 472.136 506.455 467.498C506.183 465.464 506.02 464.313 506.02 464.313L531.94 467.196C531.94 467.196 538.535 474.786 539.557 498.494C539.895 510.14 539.21 521.793 537.512 533.313Z" fill="#EEC0BA"/>
<mask id="mask35_309_5614" style="mask-type:luminance" maskUnits="userSpaceOnUse" x="486" y="492" width="54" height="46">
<path d="M486.672 492.245H539.578V537.56H486.672V492.245Z" fill="white"/>
</mask>
<g mask="url(#mask35_309_5614)">
<g opacity="0.199997">
<path d="M537.512 533.313C530.42 535.772 523.029 537.202 515.553 537.561C514.997 532.486 514.334 526.897 513.626 521.117C511.57 526.204 509.209 531.602 506.498 537.281C499.583 536.636 492.852 534.633 486.672 531.379C488.054 520.089 490.1 507.816 492.112 497.018C494.86 495.363 497.83 494.131 500.927 493.363C503.871 492.636 506.887 492.26 509.916 492.246C514.326 492.225 518.728 492.64 523.061 493.486C528.688 494.568 534.191 496.246 539.481 498.494C539.845 510.138 539.186 521.791 537.512 533.313Z" fill="black"/>
</g>
</g>
<path d="M526.086 647.885H524.639L524.236 646.052L519.459 648.288H507.337C507.337 648.288 505.411 646.299 511.189 644.722C511.47 644.64 511.743 644.531 512.005 644.398C515.074 642.912 519.459 637.903 519.459 637.903H526.108C526.308 638.224 526.49 638.556 526.652 638.898C527.381 640.374 528.599 643.571 526.086 647.885Z" fill="#1A2E35"/>
<path d="M526.652 638.876C525.77 637.87 521.777 642.285 518.85 643.794C516.238 645.124 513.299 645.716 512.005 644.364C515.074 642.878 519.916 636.405 519.916 636.405H525.259C525.259 636.405 526.336 638.228 526.652 638.876Z" fill="#EEC0BA"/>
<path d="M475.605 647.885H474.19L473.788 646.052L469 648.288H456.867C456.867 648.288 454.94 646.299 460.708 644.722C460.989 644.64 461.262 644.531 461.524 644.398C464.603 642.912 468.978 637.903 468.978 637.903H475.627C475.833 638.221 476.014 638.554 476.171 638.898C476.9 640.374 478.152 643.571 475.605 647.885Z" fill="#1A2E35"/>
<path d="M476.171 638.876C475.3 637.87 471.307 642.285 468.379 643.794C465.768 645.124 462.83 645.716 461.524 644.364C464.603 642.878 470.088 635.921 470.088 635.921L474.788 636.405C474.788 636.405 475.866 638.228 476.171 638.876Z" fill="#EEC0BA"/>
<path d="M497.695 464.312H532.115L533.05 468.873C533.05 468.873 545.695 486.846 539.286 531.67C539.286 531.67 511.591 534.956 485.507 529.211C485.507 529.211 491.361 483.158 497.477 468.124L497.695 464.312Z" fill="#1A2E35"/>
<path d="M485.2 394.467C486.221 397.839 486.839 401.368 487.034 404.957C487.034 404.957 505.779 403.09 509.568 398.011C513.357 392.933 511.207 369.182 500.935 369.545C490.663 369.909 480.379 380.74 485.2 394.467Z" fill="#1A2E35"/>
<path d="M489.738 374.358C485.651 378.419 485.135 383.253 485.785 386.563C487.156 390.938 489.233 393.829 491.184 397.966L498.106 369.559C495.498 370.616 494.181 370.273 489.738 374.358Z" fill="#1A2E35"/>
<path d="M504.256 369.625C513.671 371.269 518.05 376.41 518.676 383.059C519.303 389.707 512.937 398.287 511.743 398.813L507.965 400.24C507.965 400.24 512.132 390.342 510.403 387.697C508.674 385.053 507.419 385.023 507.419 385.023L504.256 369.625Z" fill="#1A2E35"/>
<path d="M495.289 370.969C499.439 367.954 504.341 369.677 507.25 370.969C510.527 372.911 512.839 376.201 513.603 380.007C514.237 383.581 515.004 387.913 513.226 390.171C512.236 391.471 510.759 392.283 509.157 392.41L489.057 379.319C490.409 376.037 492.554 373.162 495.289 370.969Z" fill="#1A2E35"/>
<path d="M503.397 419.376C504.969 420.531 506.094 419.837 507.728 418.764C517.547 412.917 513.513 408.287 513.513 408.287C511.094 406.258 510.496 403.4 510.447 398.884C510.438 398.753 510.421 398.624 510.394 398.496C510.283 397.913 510 397.378 509.582 396.968C508.47 395.813 506.658 395.802 505.533 396.944L505.53 396.947L501.071 399.209C501.07 399.278 501.069 399.346 501.067 399.424C501.479 401.822 501.876 403.67 502.119 405.136C502.116 405.317 502.18 405.498 502.202 405.67C502.199 405.851 502.247 406.042 502.277 406.213C502.519 408.239 499.74 411.8 498.519 412.751C497.788 413.383 498.069 415.489 503.397 419.376Z" fill="#EEC0BA"/>
<mask id="mask36_309_5614" style="mask-type:luminance" maskUnits="userSpaceOnUse" x="501" y="396" width="10" height="11">
<path d="M501.075 396.028H510.318V406.179H501.075V396.028Z" fill="white"/>
</mask>
<g mask="url(#mask36_309_5614)">
<g opacity="0.199997">
<path d="M501.079 399.14C501.09 399.214 501.088 399.29 501.075 399.364C501.487 401.762 501.883 403.61 502.127 405.076C502.168 405.252 502.196 405.43 502.21 405.61C502.234 405.799 502.244 405.989 502.242 406.179C505.64 404.511 508.458 401.815 510.318 398.451C510.212 397.876 509.944 397.346 509.548 396.923C508.447 395.759 506.636 395.726 505.497 396.853L501.079 399.14Z" fill="black"/>
</g>
</g>
<path d="M511.053 381.52C512.338 389.817 513.059 393.287 510.033 398.489C505.473 406.305 495.517 406.31 491.86 398.617C488.627 391.679 487.034 379.308 493.945 374.097C500.856 368.886 509.76 373.214 511.053 381.52Z" fill="#EEC0BA"/>
<path d="M515.87 387.931C515.373 389.867 514.125 391.343 512.821 392.092C510.859 393.22 508.856 390.047 509.003 387.682C509.136 385.552 510.863 383.686 513.023 383.542C515.151 383.4 516.439 385.717 515.87 387.931Z" fill="#EEC0BA"/>
<mask id="mask37_309_5614" style="mask-type:luminance" maskUnits="userSpaceOnUse" x="511" y="384" width="3" height="5">
<path d="M511.013 384.872H513.884V388.979H511.013V384.872Z" fill="white"/>
</mask>
<g mask="url(#mask37_309_5614)">
<g opacity="0.199997">
<path d="M511.309 388.733C511.155 387.945 511.317 387.098 511.75 386.429C512.182 385.76 512.88 385.277 513.645 385.117" stroke="black" stroke-width="0.666667" stroke-miterlimit="10" stroke-linecap="round" stroke-linejoin="round"/>
</g>
</g>
<path d="M501.204 387.038C501.393 387.913 501.124 388.749 500.604 388.906C500.084 389.062 499.51 388.48 499.321 387.606C499.132 386.731 499.401 385.894 499.921 385.738C500.441 385.581 501.014 386.163 501.204 387.038Z" fill="#1A2E35"/>
<path d="M493.358 389.195C493.539 390.044 493.266 390.858 492.748 391.014C492.23 391.17 491.663 390.609 491.481 389.761C491.299 388.912 491.573 388.098 492.091 387.942C492.609 387.786 493.176 388.347 493.358 389.195Z" fill="#1A2E35"/>
<path d="M502.069 383.567C501.97 383.607 501.859 383.606 501.762 383.552C500.23 382.729 498.959 383.521 498.944 383.531C498.755 383.649 498.517 383.588 498.414 383.387C498.312 383.185 498.383 382.924 498.572 382.802C498.639 382.76 500.233 381.763 502.134 382.787C502.324 382.889 502.394 383.143 502.292 383.355C502.242 383.456 502.161 383.53 502.069 383.567Z" fill="#1A2E35"/>
<path d="M489.64 385.831C489.553 385.827 489.47 385.783 489.411 385.704C489.29 385.539 489.316 385.28 489.47 385.124C491.01 383.57 492.567 383.992 492.633 384.012C492.82 384.065 492.919 384.286 492.856 384.506C492.794 384.726 492.593 384.861 492.408 384.808C492.347 384.791 491.134 384.484 489.91 385.72C489.83 385.801 489.733 385.837 489.64 385.831Z" fill="#1A2E35"/>
<path d="M495.385 388.204C495.385 388.204 494.948 391.607 494.047 393.903C493.89 394.303 494.17 394.747 494.589 394.785C495.669 394.884 496.729 394.228 496.729 394.228L495.385 388.204Z" fill="#E3887B"/>
<path d="M500.229 385.69L498.289 385.755C498.289 385.755 499.655 386.876 500.229 385.69Z" fill="#1A2E35"/>
<path d="M492.284 387.909L490.342 387.974C490.342 387.974 491.708 389.095 492.284 387.909Z" fill="#1A2E35"/>
<path d="M497.656 396.398C498.46 397.042 499.63 398.426 499.63 398.426C499.772 398.34 499.913 398.253 500.05 398.16C501.936 396.939 502.419 395.733 502.382 394.765C502.359 394.236 502.174 393.776 501.979 393.429C501.758 393.025 501.512 392.79 501.512 392.79C500.888 394.05 499.215 395.328 498.293 395.972C497.91 396.245 497.656 396.398 497.656 396.398Z" fill="#1A2E35"/>
<path d="M498.293 395.972L498.891 396.554C500.665 395.4 501.763 394.343 501.98 393.429C501.759 393.026 501.512 392.79 501.512 392.79C500.888 394.051 499.215 395.328 498.293 395.972Z" fill="white"/>
<path d="M500.05 398.16C501.936 396.939 502.419 395.732 502.382 394.765C501.755 395.206 501.046 395.811 500.548 396.547C500.166 397.109 500.052 397.668 500.05 398.16Z" fill="#FE5652"/>
<path d="M508.625 384.055C508.625 384.055 503.071 379.521 502.112 374.935C502.112 374.935 485.004 374.265 489.105 388.559C489.105 388.559 483.316 376.617 496.385 372.046C509.454 367.473 515.422 384.976 510.447 392.397C510.412 392.338 512.067 386.902 508.625 384.055Z" fill="#1A2E35"/>
<path d="M490.596 374.993C489.138 377.067 488.359 379.564 488.375 382.122C488.694 383.92 491.307 384.774 491.307 384.774L493.522 380.309L494.133 383.753C498.803 382.324 501.097 379.209 502.063 375.152L498.542 370.776C498.542 370.776 491.928 373.289 490.596 374.993Z" fill="#1A2E35"/>
<mask id="mask38_309_5614" style="mask-type:luminance" maskUnits="userSpaceOnUse" x="486" y="424" width="6" height="17">
<path d="M486.36 424.288H491.507V440.548H486.36V424.288Z" fill="white"/>
</mask>
<g mask="url(#mask38_309_5614)">
<g opacity="0.199997">
<path d="M489.986 438.904C489.986 438.904 488.572 433.305 491.508 424.288C491.508 424.288 484.741 431.766 486.725 436.954C487.996 440.276 488.074 440.548 488.074 440.548L489.986 438.904Z" fill="black"/>
</g>
</g>
<path d="M531.178 450.413L533.625 469.214L495.62 466.638C495.863 472.293 499.301 452.894 498.896 449.963C497.75 446.343 491.953 440.878 490.41 436.503C488.765 430.428 492.163 413.724 493.271 413.195C494.614 412.553 496.289 412.611 497.318 412.145C501.324 411.177 510.436 407.834 514.519 407.313C515.309 407.236 516.093 407.09 516.873 406.997C516.873 406.997 532.312 406.234 532.995 412.687C533.062 413.045 529.315 429.971 531.178 450.413Z" fill="#007CFF"/>
<mask id="mask39_309_5614" style="mask-type:luminance" maskUnits="userSpaceOnUse" x="519" y="425" width="14" height="25">
<path d="M519.716 425.277H532.183V449.22H519.716V425.277Z" fill="white"/>
</mask>
<g mask="url(#mask39_309_5614)">
<g opacity="0.199997">
<path d="M532.184 446.05L524.052 425.278L526.614 444.063L519.716 449.221L532.184 446.05Z" fill="black"/>
</g>
</g>
<mask id="mask40_309_5614" style="mask-type:luminance" maskUnits="userSpaceOnUse" x="514" y="453" width="19" height="10">
<path d="M514.737 453.778H532.183V462.624H514.737V453.778Z" fill="white"/>
</mask>
<g mask="url(#mask40_309_5614)">
<g opacity="0.199997">
<path d="M514.737 462.623C515.242 462.555 518.63 458.136 518.63 458.136H532.183L531.626 453.852C532.006 453.543 515.85 454.285 515.85 454.285L514.737 459.496V462.623Z" fill="black"/>
</g>
</g>
<path d="M526.364 408.497C527.024 408.581 529.708 407.02 534.552 413.412C539.397 419.803 546.694 449.878 545.093 453.044C543.49 456.212 514.737 456.745 514.737 456.745V449.092L530.875 445.339C530.875 445.339 521.717 422.694 523.162 416.86C524.608 411.026 526.364 408.497 526.364 408.497Z" fill="#007CFF"/>
<path d="M519.106 406.863C517.941 413.368 513.204 418.588 506.967 420.237C504.779 420.776 502.335 419.534 500.606 418.062C498.853 416.56 497.686 414.459 497.319 412.145C504.913 409.069 511.793 406.319 519.106 406.863Z" fill="#EEC0BA"/>
<path d="M494.87 413.01C494.87 413.01 491.831 412.661 489.153 416.103C485.176 421.212 470.311 436.504 470.311 436.504L448.896 426.119L445.279 433.194C445.279 433.194 465.926 449.347 471.418 449.311C480.27 449.254 493.067 435.961 493.067 435.961L494.87 413.01Z" fill="#007CFF"/>
<path d="M511.846 470.916H447.129C445.533 470.916 444.237 469.586 444.237 467.945V426.684C444.237 425.044 445.533 423.714 447.129 423.714H511.846C513.443 423.714 514.738 425.044 514.738 426.684V467.945C514.738 469.586 513.443 470.916 511.846 470.916Z" fill="#007CFF"/>
<mask id="mask41_309_5614" style="mask-type:luminance" maskUnits="userSpaceOnUse" x="444" y="423" width="71" height="48">
<path d="M444.238 423.714H514.737V470.916H444.238V423.714Z" fill="white"/>
</mask>
<g mask="url(#mask41_309_5614)">
<g opacity="0.899994">
<path d="M511.846 470.916H447.129C445.533 470.916 444.237 469.586 444.237 467.945V426.684C444.237 425.044 445.533 423.714 447.129 423.714H511.846C513.443 423.714 514.738 425.044 514.738 426.684V467.945C514.738 469.586 513.443 470.916 511.846 470.916Z" fill="white"/>
</g>
</g>
<path d="M500.727 433.926H459.092V431.207H500.727V433.926Z" fill="#007CFF"/>
<path d="M455.632 432.566C455.632 433.598 454.818 434.434 453.814 434.434C452.809 434.434 451.996 433.598 451.996 432.566C451.996 431.534 452.809 430.698 453.814 430.698C454.818 430.698 455.632 431.534 455.632 432.566Z" fill="#007CFF"/>
<path d="M477.098 463.983H453.998V440.254H477.098V463.983Z" fill="#007CFF"/>
<mask id="mask42_309_5614" style="mask-type:luminance" maskUnits="userSpaceOnUse" x="453" y="440" width="25" height="24">
<path d="M453.999 440.255H477.098V463.983H453.999V440.255Z" fill="white"/>
</mask>
<g mask="url(#mask42_309_5614)">
<g opacity="0.399994">
<path d="M477.098 463.983H453.998V440.254H477.098V463.983Z" fill="white"/>
</g>
</g>
<path d="M475.775 462.624H455.322V441.614H475.775V462.624Z" fill="#007CFF"/>
<mask id="mask43_309_5614" style="mask-type:luminance" maskUnits="userSpaceOnUse" x="455" y="441" width="21" height="22">
<path d="M455.322 441.614H475.775V462.624H455.322V441.614Z" fill="white"/>
</mask>
<g mask="url(#mask43_309_5614)">
<g opacity="0.699997">
<path d="M475.775 462.624H455.322V441.614H475.775V462.624Z" fill="white"/>
</g>
</g>
<path d="M455.322 462.624L462.27 453.132L466.868 456.364L472.414 450.063L475.775 453.289V462.624H455.322Z" fill="#007CFF"/>
<path d="M468.083 446.667C468.083 448.104 466.949 449.271 465.549 449.271C464.148 449.271 463.014 448.104 463.014 446.667C463.014 445.229 464.148 444.062 465.549 444.062C466.949 444.062 468.083 445.229 468.083 446.667Z" fill="#007CFF"/>
<path d="M508.663 452.118H482.013V449.399H508.663V452.118Z" fill="#1A2E35"/>
<path d="M493.641 459.496H482.013V456.777H493.641V459.496Z" fill="#1A2E35"/>
<path d="M508.663 444.741H482.013V442.022H508.663V444.741Z" fill="#1A2E35"/>
<path d="M514.663 450.305C514.663 450.305 508.076 452.018 507.466 453.363C506.856 454.71 508.916 454.606 508.916 454.606C508.916 454.606 506.657 454.863 506.633 455.863C506.604 457.063 508.762 456.946 508.762 456.946C508.762 456.946 506.925 457.233 506.962 458.124C507.001 459.049 509.445 459.093 509.445 459.093C509.445 459.093 508.189 459.547 508.556 460.152C508.923 460.756 514.11 460.954 515.638 459.957C517.165 458.96 517.172 452.112 516.873 450.618C516.575 449.124 516.443 448.319 514.615 446.049L514.663 450.305Z" fill="#EEC0BA"/>
<mask id="mask44_309_5614" style="mask-type:luminance" maskUnits="userSpaceOnUse" x="508" y="453" width="5" height="2">
<path d="M508.819 453.853H512.931V454.719H508.819V453.853Z" fill="white"/>
</mask>
<g mask="url(#mask44_309_5614)">
<g opacity="0.199997">
<path d="M508.921 454.719C508.924 454.719 508.928 454.719 508.931 454.718L512.849 454.076C512.902 454.068 512.938 454.011 512.93 453.95C512.922 453.889 512.871 453.845 512.821 453.855L508.901 454.495C508.848 454.504 508.812 454.561 508.821 454.621C508.828 454.679 508.872 454.721 508.921 454.719Z" fill="black"/>
</g>
</g>
<mask id="mask45_309_5614" style="mask-type:luminance" maskUnits="userSpaceOnUse" x="508" y="456" width="5" height="2">
<path d="M508.777 456.52H512.783V457.053H508.777V456.52Z" fill="white"/>
</mask>
<g mask="url(#mask45_309_5614)">
<g opacity="0.199997">
<path d="M508.88 457.052C508.88 457.052 508.881 457.052 508.882 457.052L512.694 456.744C512.748 456.74 512.787 456.686 512.782 456.624C512.778 456.562 512.74 456.526 512.679 456.52L508.866 456.828C508.813 456.832 508.773 456.886 508.778 456.947C508.782 457.009 508.827 457.055 508.88 457.052Z" fill="black"/>
</g>
</g>
<mask id="mask46_309_5614" style="mask-type:luminance" maskUnits="userSpaceOnUse" x="509" y="458" width="4" height="2">
<path d="M509.479 458.828H512.511V459.199H509.479V458.828Z" fill="white"/>
</mask>
<g mask="url(#mask46_309_5614)">
<g opacity="0.199997">
<path d="M509.581 459.199L512.421 459.053C512.473 459.05 512.514 458.997 512.512 458.935C512.508 458.875 512.463 458.825 512.409 458.828L509.571 458.974C509.517 458.977 509.477 459.03 509.48 459.092C509.483 459.153 509.528 459.202 509.581 459.199Z" fill="black"/>
</g>
</g>
<path d="M444.254 447.015C444.254 447.015 450.841 448.728 451.451 450.073C452.06 451.42 450 451.316 450 451.316C450 451.316 452.26 451.573 452.284 452.573C452.313 453.773 450.155 453.656 450.155 453.656C450.155 453.656 451.992 453.942 451.954 454.834C451.916 455.759 449.472 455.803 449.472 455.803C449.472 455.803 450.728 456.257 450.361 456.862C449.994 457.466 444.806 457.664 443.279 456.666C441.752 455.67 441.745 448.822 442.043 447.329C442.341 445.834 442.475 445.029 444.302 442.76L444.254 447.015Z" fill="#EEC0BA"/>
<mask id="mask47_309_5614" style="mask-type:luminance" maskUnits="userSpaceOnUse" x="445" y="450" width="6" height="2">
<path d="M445.984 450.563H450.097V451.429H445.984V450.563Z" fill="white"/>
</mask>
<g mask="url(#mask47_309_5614)">
<g opacity="0.199997">
<path d="M449.995 451.428C449.992 451.428 449.99 451.428 449.986 451.427L446.067 450.786C446.015 450.777 445.978 450.72 445.986 450.659C445.994 450.598 446.045 450.554 446.096 450.564L450.015 451.204C450.068 451.213 450.104 451.27 450.096 451.331C450.088 451.389 450.044 451.431 449.995 451.428Z" fill="black"/>
</g>
</g>
<mask id="mask48_309_5614" style="mask-type:luminance" maskUnits="userSpaceOnUse" x="446" y="453" width="5" height="1">
<path d="M446.134 453.23H450.139V453.762H446.134V453.23Z" fill="white"/>
</mask>
<g mask="url(#mask48_309_5614)">
<g opacity="0.199997">
<path d="M450.037 453.763C450.037 453.763 450.036 453.763 450.034 453.763L446.223 453.454C446.169 453.45 446.13 453.396 446.135 453.334C446.138 453.273 446.177 453.236 446.238 453.23L450.05 453.539C450.104 453.543 450.143 453.597 450.138 453.657C450.135 453.719 450.089 453.766 450.037 453.763Z" fill="black"/>
</g>
</g>
<mask id="mask49_309_5614" style="mask-type:luminance" maskUnits="userSpaceOnUse" x="446" y="455" width="4" height="1">
<path d="M446.406 455.538H449.438V455.909H446.406V455.538Z" fill="white"/>
</mask>
<g mask="url(#mask49_309_5614)">
<g opacity="0.199997">
<path d="M449.336 455.909L446.497 455.764C446.444 455.761 446.403 455.708 446.406 455.646C446.41 455.585 446.455 455.536 446.508 455.539L449.347 455.684C449.4 455.687 449.44 455.74 449.437 455.802C449.435 455.864 449.39 455.912 449.336 455.909Z" fill="black"/>
</g>
</g>
</g>
<path d="M174.537 416.568C174.537 416.568 168.431 438.789 172.336 442.657C176.242 446.526 189.911 443.947 189.214 443.66C188.516 443.374 192.7 416.649 192.979 417.618C193.259 418.588 174.537 416.568 174.537 416.568Z" fill="#E3887B"/>
<path d="M275.61 454.05H213.504C211.908 454.05 210.613 452.721 210.613 451.08V389.279C210.613 387.638 211.908 386.308 213.504 386.308H275.61C277.207 386.308 278.502 387.638 278.502 389.279V451.08C278.502 452.721 277.207 454.05 275.61 454.05Z" fill="#007CFF"/>
<mask id="mask50_309_5614" style="mask-type:luminance" maskUnits="userSpaceOnUse" x="210" y="386" width="69" height="69">
<path d="M210.613 386.308H278.501V454.051H210.613V386.308Z" fill="white"/>
</mask>
<g mask="url(#mask50_309_5614)">
<g opacity="0.899994">
<path d="M275.61 454.051H213.504C211.908 454.051 210.613 452.721 210.613 451.08V389.279C210.613 387.638 211.908 386.308 213.504 386.308H275.61C277.207 386.308 278.502 387.638 278.502 389.279V451.08C278.502 452.721 277.207 454.051 275.61 454.051Z" fill="white"/>
</g>
</g>
<path d="M265.01 396.141H224.917V393.523H265.01V396.141Z" fill="#007CFF"/>
<path d="M270.006 436.243H218.084V433.625H270.006V436.243Z" fill="#1A2E35"/>
<path d="M243.746 443.208H218.084V440.589H243.746V443.208Z" fill="#1A2E35"/>
<path d="M221.585 394.832C221.585 395.826 220.801 396.631 219.834 396.631C218.867 396.631 218.083 395.826 218.083 394.832C218.083 393.839 218.867 393.033 219.834 393.033C220.801 393.033 221.585 393.839 221.585 394.832Z" fill="#007CFF"/>
<path d="M270.006 426.371H247.761V403.521H270.006V426.371Z" fill="#007CFF"/>
<mask id="mask51_309_5614" style="mask-type:luminance" maskUnits="userSpaceOnUse" x="247" y="403" width="24" height="24">
<path d="M247.761 403.521H270.006V426.371H247.761V403.521Z" fill="white"/>
</mask>
<g mask="url(#mask51_309_5614)">
<g opacity="0.399994">
<path d="M270.006 426.371H247.761V403.521H270.006V426.371Z" fill="white"/>
</g>
</g>
<path d="M268.731 425.061H249.035V404.83H268.731V425.061Z" fill="#007CFF"/>
<mask id="mask52_309_5614" style="mask-type:luminance" maskUnits="userSpaceOnUse" x="249" y="404" width="20" height="22">
<path d="M249.035 404.83H268.731V425.061H249.035V404.83Z" fill="white"/>
</mask>
<g mask="url(#mask52_309_5614)">
<g opacity="0.699997">
<path d="M268.731 425.061H249.035V404.83H268.731V425.061Z" fill="white"/>
</g>
</g>
<path d="M249.036 425.062L255.727 415.921L260.155 419.034L265.494 412.966L268.731 416.072V425.062H249.036Z" fill="#007CFF"/>
<path d="M261.324 409.696C261.324 411.081 260.231 412.203 258.884 412.203C257.536 412.203 256.442 411.081 256.442 409.696C256.442 408.311 257.536 407.189 258.884 407.189C260.231 407.189 261.324 408.311 261.324 409.696Z" fill="#007CFF"/>
<path d="M243.437 426.371H221.192V403.521H243.437V426.371Z" fill="#007CFF"/>
<mask id="mask53_309_5614" style="mask-type:luminance" maskUnits="userSpaceOnUse" x="221" y="403" width="23" height="24">
<path d="M221.193 403.521H243.437V426.371H221.193V403.521Z" fill="white"/>
</mask>
<g mask="url(#mask53_309_5614)">
<g opacity="0.399994">
<path d="M243.437 426.371H221.192V403.521H243.437V426.371Z" fill="white"/>
</g>
</g>
<path d="M242.163 425.061H222.467V404.83H242.163V425.061Z" fill="#007CFF"/>
<mask id="mask54_309_5614" style="mask-type:luminance" maskUnits="userSpaceOnUse" x="222" y="404" width="21" height="22">
<path d="M222.467 404.83H242.163V425.061H222.467V404.83Z" fill="white"/>
</mask>
<g mask="url(#mask54_309_5614)">
<g opacity="0.699997">
<path d="M242.163 425.061H222.467V404.83H242.163V425.061Z" fill="white"/>
</g>
</g>
<path d="M222.467 425.062L229.158 415.921L233.587 419.034L238.926 412.966L242.163 416.072V425.062H222.467Z" fill="#007CFF"/>
<path d="M234.756 409.696C234.756 411.081 233.663 412.203 232.315 412.203C230.967 412.203 229.874 411.081 229.874 409.696C229.874 408.311 230.967 407.189 232.315 407.189C233.663 407.189 234.756 408.311 234.756 409.696Z" fill="#007CFF"/>
<path d="M181.753 617.212L181.733 636.49L190.448 637.186L193.51 619.076C189.525 616.119 185.603 615.413 181.753 617.212Z" fill="#E3887B"/>
<path d="M182.037 634.478C181.18 637.023 181.124 647.432 181.124 647.432L199.595 647.455C200.693 643.69 198.994 641.121 196.84 640.779C195.914 640.635 194.825 639.576 194.031 638.653C194.026 638.533 192.896 632.75 192.198 632.474C192.198 632.474 191.717 631.872 191.308 632.473C190.898 633.073 190.542 635.027 190.542 635.027C187.659 631.045 184.833 631.577 182.037 634.478Z" fill="#1A2E35"/>
<path d="M181.813 637.5C183.9 636.645 186.14 636.97 187.96 638.392C188.278 638.641 188.58 638.059 188.264 637.812C186.326 636.298 183.876 635.942 181.653 636.853C181.291 637.002 181.447 637.651 181.813 637.5Z" fill="white"/>
<path d="M199.54 645.932L181.34 645.911C181.173 645.911 181.038 645.759 181.038 645.574C181.038 645.389 181.174 645.239 181.34 645.239L199.54 645.26C199.707 645.26 199.842 645.411 199.842 645.597C199.842 645.782 199.706 645.932 199.54 645.932Z" fill="white"/>
<path d="M178.521 626.712L197.09 627.728C201.256 613.859 205.374 564.13 205.8 549.2C206.308 531.361 212.526 486.591 207.028 477.273C201.53 467.957 176.66 475.377 176.66 475.377C176.66 475.377 179.76 529.892 178.521 547.277C177.447 562.346 175.785 606.639 178.521 626.712Z" fill="#1A2E35"/>
<path d="M199.095 622.703L197.887 629.076L177.764 628.405L177.026 622.285L199.095 622.703Z" fill="#007CFF"/>
<path d="M219.347 614.698L219.326 636.456L227.71 637.167L231.835 616.801C228.469 614.018 224.559 612.654 219.347 614.698Z" fill="#E3887B"/>
<path d="M219.328 634.523C218.47 637.068 218.414 647.477 218.414 647.477L239.634 647.502C240.731 643.738 238.439 641.506 236.284 641.166C235.359 641.02 232.115 639.621 231.321 638.698C231.316 638.578 230.186 632.795 229.488 632.519C229.488 632.519 229.007 631.917 228.598 632.518C228.188 633.118 227.832 635.072 227.832 635.072C224.949 631.09 222.123 631.623 219.328 634.523Z" fill="#1A2E35"/>
<path d="M219.103 637.545C221.19 636.69 223.43 637.015 225.249 638.437C225.568 638.686 225.87 638.103 225.554 637.857C223.615 636.342 221.165 635.987 218.943 636.897C218.581 637.047 218.738 637.696 219.103 637.545Z" fill="white"/>
<path d="M239.636 645.98L218.63 645.955C218.463 645.955 218.328 645.805 218.329 645.619C218.329 645.433 218.463 645.283 218.63 645.283L239.636 645.309C239.803 645.309 239.938 645.459 239.938 645.645C239.938 645.83 239.802 645.98 239.636 645.98Z" fill="white"/>
<path d="M215.608 626.712L234.017 627.728C236.258 612.375 245.262 556.462 244.522 545.751C243.618 532.669 232.957 476.041 228.992 471.674C225.027 467.308 195.998 478.626 195.998 478.626C195.998 478.626 207.928 527.322 217.335 548.383C219.289 552.758 214.096 608.039 215.608 626.712Z" fill="#1A2E35"/>
<path d="M236.122 623.181L235.183 629.076L214.724 627.727L214.312 621.557L236.122 623.181Z" fill="#007CFF"/>
<mask id="mask55_309_5614" style="mask-type:luminance" maskUnits="userSpaceOnUse" x="180" y="481" width="62" height="142">
<path d="M180.754 481.054H241.829V622.703H180.754V481.054Z" fill="white"/>
</mask>
<g mask="url(#mask55_309_5614)">
<g opacity="0.300003">
<path d="M203.048 511.213C202.697 510.418 202.343 509.622 202.015 508.813C200.266 504.485 198.941 499.982 197.892 495.386C194.864 495.054 191.872 494.373 188.957 493.348C188.587 493.217 188.746 492.569 189.118 492.699C193.727 494.321 198.518 495.074 203.352 494.934C203.742 494.924 203.74 495.595 203.352 495.606C201.74 495.652 200.131 495.591 198.531 495.441C199.585 500.006 200.903 504.485 202.66 508.779C204.42 513.078 206.554 517.168 208.759 521.201C208.961 521.571 208.439 521.908 208.238 521.54C206.613 518.569 205.034 515.563 203.608 512.469C203.476 516.159 203.077 527.562 202.628 542.669C201.853 568.741 195.903 611.13 194.241 622.562H193.629C195.267 611.31 201.248 568.767 202.025 542.648C202.555 524.789 203.016 512.098 203.048 511.213Z" fill="white"/>
<path d="M181.045 546.811C186.399 546.488 191.76 546.649 197.091 547.291C197.473 547.337 197.476 548.009 197.091 547.963C191.76 547.32 186.399 547.159 181.045 547.482C180.656 547.506 180.659 546.834 181.045 546.811Z" fill="white"/>
<path d="M241.217 546.87C240.801 538.686 231.638 503.944 231.546 503.595C231.498 503.417 231.59 503.231 231.749 503.178C231.909 503.125 232.077 503.227 232.124 503.405C232.503 504.837 241.4 538.571 241.82 546.831C242.18 553.937 232.626 619.628 232.22 622.422C232.196 622.586 232.068 622.704 231.922 622.704C231.906 622.704 231.89 622.702 231.874 622.699C231.709 622.669 231.597 622.497 231.623 622.314C231.724 621.63 241.573 553.902 241.217 546.87Z" fill="white"/>
<path d="M236.009 499.997C229.107 497.098 226.876 488.675 225.232 481.471C225.136 481.051 225.718 480.874 225.814 481.292C227.396 488.225 229.496 496.548 236.17 499.349C236.53 499.501 236.374 500.15 236.009 499.997Z" fill="white"/>
<path d="M220.558 547.457C225.044 547.143 229.53 546.828 234.016 546.514C234.405 546.488 234.403 547.159 234.016 547.186C229.53 547.5 225.044 547.814 220.558 548.129C220.169 548.156 220.172 547.484 220.558 547.457Z" fill="white"/>
</g>
</g>
<path d="M217.957 357.181C217.957 357.981 218.299 358.585 218.791 358.67C219.283 358.754 219.735 358.079 219.776 357.265C219.816 356.45 219.447 355.86 218.955 355.776C218.462 355.692 218.052 356.408 217.957 357.181Z" fill="#1A2E35"/>
<path d="M218.271 357.068C218.544 359.649 219.165 362.179 220.117 364.584C218.884 365.049 217.514 364.936 216.37 364.275L218.271 357.068Z" fill="#B94D3C"/>
<path d="M216.548 354.61C216.448 354.62 216.346 354.595 216.261 354.54C216.083 354.36 216.081 354.067 216.256 353.885C216.257 353.883 216.259 353.882 216.261 353.88C217.173 352.713 218.58 352.074 220.035 352.166C220.276 352.189 220.453 352.407 220.432 352.654C220.432 352.654 220.432 352.656 220.432 352.658C220.39 352.906 220.171 353.083 219.926 353.065C218.774 353.011 217.667 353.535 216.958 354.47C216.855 354.588 216.699 354.641 216.548 354.61Z" fill="#1A2E35"/>
<path d="M218.285 367.814C218.183 368.241 218.057 368.663 217.908 369.076C217.071 371.434 215.548 373.481 213.54 374.95C213.035 375.324 212.501 375.657 211.944 375.947C207.568 378.311 202.17 377.444 198.737 373.826C194.316 369.32 194.432 364.114 193.928 355.302C193.795 353.409 194.1 351.511 194.82 349.757C197.353 343.603 204.345 340.687 210.438 343.245L210.442 343.246C218.968 346.767 220.144 359.873 218.285 367.814Z" fill="#E3887B"/>
<mask id="mask56_309_5614" style="mask-type:luminance" maskUnits="userSpaceOnUse" x="202" y="373" width="12" height="5">
<path d="M202.348 373.245H213.508V377.264H202.348V373.245Z" fill="white"/>
</mask>
<g mask="url(#mask56_309_5614)">
<g opacity="0.199997">
<path d="M213.508 374.95C213.003 375.324 212.47 375.657 211.912 375.947C208.952 377.541 205.436 377.697 202.348 376.371C202.742 375.311 203.268 374.307 203.913 373.381C207.194 372.965 210.524 373.509 213.508 374.95Z" fill="black"/>
</g>
</g>
<path d="M195.944 386.38C200.249 390.325 210.778 388.871 210.778 388.871C210.778 388.871 217.351 387.048 215.965 384.981C212.101 384.333 210.222 382.51 209.445 380.167C209.026 378.719 208.894 377.202 209.057 375.703C209.118 374.867 209.227 374.034 209.382 373.211L196.364 363.478C198.064 369.903 200.154 381.725 195.944 386.38Z" fill="#E3887B"/>
<path d="M213.508 359.798L215.388 360.508L214.453 356.627C214.453 356.627 217.204 352.387 214.453 348.707C214.453 348.707 222.054 346.374 217.761 342.345C216.165 340.84 214.18 342.345 208.931 340.044C206.086 338.782 197.183 338.687 196.742 342.345C196.742 342.345 190.327 342.345 189.634 353.373C189.224 359.913 191.712 366.3 196.426 370.804C196.426 370.804 204.175 372.649 207.976 369.51C211.776 366.372 213.508 359.798 213.508 359.798Z" fill="#1A2E35"/>
<path d="M208.553 360.424C208.885 362.103 209.95 363.541 211.451 364.336C213.225 365.1 214.401 362.576 214.138 359.925C213.897 357.571 212.69 354.264 210.789 354.709C208.889 355.154 207.934 358.048 208.553 360.424Z" fill="#E3887B"/>
<path d="M182.706 384.26C182.706 384.26 179.681 385.205 178.177 385.772C175.04 386.952 172.969 390.538 171.835 394.061C169.06 402.666 164.578 423.04 164.578 423.04L180.844 426.551L189.521 407.356L182.706 384.26Z" fill="#007CFF"/>
<mask id="mask57_309_5614" style="mask-type:luminance" maskUnits="userSpaceOnUse" x="164" y="384" width="26" height="43">
<path d="M164.578 384.26H189.521V426.551H164.578V384.26Z" fill="white"/>
</mask>
<g mask="url(#mask57_309_5614)">
<g opacity="0.5">
<path d="M182.706 384.26C182.706 384.26 178.354 385.092 176.062 387.038C174.318 388.517 172.929 390.664 171.835 394.061C169.06 402.666 164.578 423.04 164.578 423.04L180.844 426.551L189.521 407.356L182.706 384.26Z" fill="white"/>
</g>
</g>
<path d="M222.1 385.248C217.302 384.718 202.545 381.293 182.706 384.26L178.064 459.608C178.064 459.608 177.468 471.135 175.711 481.027C195.871 489.919 219.721 487.377 233.208 479.901C233.052 480.215 232.61 471.994 231.918 459.951C230.699 438.728 228.705 405.636 226.131 386.479C226.062 386.005 222.578 385.301 222.1 385.248Z" fill="#007CFF"/>
<mask id="mask58_309_5614" style="mask-type:luminance" maskUnits="userSpaceOnUse" x="175" y="383" width="59" height="104">
<path d="M175.71 383.064H233.208V486.679H175.71V383.064Z" fill="white"/>
</mask>
<g mask="url(#mask58_309_5614)">
<g opacity="0.5">
<path d="M222.1 385.248C217.302 384.718 202.545 381.293 182.706 384.26L178.064 459.608C178.064 459.608 177.468 471.135 175.711 481.027C195.871 489.919 219.721 487.377 233.208 479.901C233.052 480.215 232.61 471.994 231.918 459.951C230.699 438.728 228.705 405.636 226.131 386.479C226.062 386.005 222.578 385.301 222.1 385.248Z" fill="white"/>
</g>
</g>
<path d="M195.726 383.477C196.299 381.726 197.096 380.493 198.119 379.779L209.167 380.654L214.348 384.162L195.726 383.477Z" fill="#007CFF"/>
<mask id="mask59_309_5614" style="mask-type:luminance" maskUnits="userSpaceOnUse" x="195" y="379" width="20" height="6">
<path d="M195.726 379.78H214.347V384.162H195.726V379.78Z" fill="white"/>
</mask>
<g mask="url(#mask59_309_5614)">
<g opacity="0.5">
<path d="M195.726 383.477C196.298 381.726 197.096 380.493 198.119 379.779L209.167 380.654L214.348 384.162L195.726 383.477Z" fill="white"/>
</g>
</g>
<mask id="mask60_309_5614" style="mask-type:luminance" maskUnits="userSpaceOnUse" x="221" y="408" width="10" height="32">
<path d="M221.585 408.7H230.698V439.621H221.585V408.7Z" fill="white"/>
</mask>
<g mask="url(#mask60_309_5614)">
<g opacity="0.199997">
<path d="M221.585 408.699C223.355 417.186 225.897 433.823 230.699 439.621L229.557 422.783L221.585 408.699Z" fill="black"/>
</g>
</g>
<mask id="mask61_309_5614" style="mask-type:luminance" maskUnits="userSpaceOnUse" x="175" y="404" width="6" height="23">
<path d="M175.79 404.557H180.237V426.317H175.79V404.557Z" fill="white"/>
</mask>
<g mask="url(#mask61_309_5614)">
<g opacity="0.199997">
<path d="M179.809 426.316L180.237 404.556L175.79 425.281L179.809 426.316Z" fill="black"/>
</g>
</g>
<path d="M230.055 415.412C229.435 415.656 241.399 443.305 246.27 443.553C251.141 443.799 274.009 433.11 274.009 433.11L268.879 426.82L251.594 427.838L242.777 408.56L230.055 415.412Z" fill="#E3887B"/>
<path d="M224.039 386.197C217.835 390.406 214.759 399.937 231.393 429.362L249.357 418.095C245.723 411.208 241.873 406.202 237.595 396.228C228.97 383.474 224.039 386.197 224.039 386.197Z" fill="#007CFF"/>
<mask id="mask62_309_5614" style="mask-type:luminance" maskUnits="userSpaceOnUse" x="219" y="385" width="31" height="45">
<path d="M219.075 385.953H249.356V429.362H219.075V385.953Z" fill="white"/>
</mask>
<g mask="url(#mask62_309_5614)">
<g opacity="0.5">
<path d="M224.039 386.197C217.835 390.406 214.759 399.937 231.393 429.362L249.357 418.095C245.723 411.208 241.873 406.202 237.595 396.228C228.97 383.474 224.039 386.197 224.039 386.197Z" fill="white"/>
</g>
</g>
<path d="M282.065 426.633C282.065 425.02 281.581 423.265 280.736 423.212C279.89 423.158 275.372 423.206 275.372 423.206C275.372 421.904 274.024 421.053 272.905 421.664C271.566 422.395 270.11 423.388 269.741 424.399C269.016 426.385 268.653 426.882 268.653 426.882L271.748 434.177C271.748 434.177 277.473 438.052 278.803 436.686C280.132 435.321 280.011 433.862 280.011 433.862C280.011 433.862 281.34 431.97 281.219 430.729C281.099 429.488 282.065 428.247 282.065 426.633Z" fill="#E3887B"/>
<g opacity="0.8">
<path opacity="0.8" d="M624.283 118.271C630.704 117.023 634.889 110.753 633.629 104.269C632.369 97.7842 626.142 93.5398 619.721 94.7886C613.299 96.0374 609.115 102.307 610.375 108.791C611.635 115.276 617.862 119.52 624.283 118.271Z" stroke="#CFDAE6" stroke-width="0.941176"/>
<g opacity="0.8">
<path opacity="0.45" d="M623.697 115.431C628.562 114.485 631.732 109.736 630.778 104.823C629.823 99.9107 625.106 96.6955 620.241 97.6417C615.376 98.5879 612.206 103.337 613.16 108.25C614.115 113.162 618.832 116.377 623.697 115.431Z" fill="#BACAD9"/>
<path opacity="0.8" fill-rule="evenodd" clip-rule="evenodd" d="M623.696 115.432C628.561 114.485 631.732 109.736 630.777 104.823C629.823 99.9107 625.105 96.6953 620.24 97.6416L623.696 115.432Z" fill="#BACAD9"/>
</g>
<path opacity="0.8" d="M611.035 100.903L576.905 85.9189" stroke="#CFDAE6" stroke-width="0.941176"/>
<path opacity="0.8" d="M574.722 88.3049C576.595 87.9406 577.816 86.1121 577.448 84.2208C577.081 82.3294 575.265 81.0915 573.392 81.4557C571.519 81.82 570.298 83.6485 570.666 85.5398C571.033 87.4312 572.849 88.6691 574.722 88.3049Z" stroke="#CFDAE6" stroke-width="0.941176"/>
<path opacity="0.8" d="M585.836 148.088C587.442 147.775 588.488 146.208 588.173 144.587C587.858 142.966 586.301 141.905 584.696 142.217C583.09 142.529 582.044 144.096 582.359 145.718C582.674 147.339 584.231 148.4 585.836 148.088Z" fill="#F7E1AD"/>
<path opacity="0.8" d="M613.933 115.967L587.34 143.247" stroke="#CFDAE6" stroke-width="0.941176"/>
</g>
<path opacity="0.25" d="M224.611 791.449C207.601 790.706 193.206 803.907 192.46 820.935C191.713 837.963 204.899 852.37 221.909 853.114C238.92 853.858 253.315 840.656 254.061 823.628C254.807 806.6 241.622 792.193 224.611 791.449Z" fill="#CFDAE6"/>
<path opacity="0.3" d="M224.261 799.443C211.661 798.892 200.998 808.671 200.445 821.284C199.893 833.898 209.659 844.569 222.26 845.12C234.86 845.671 245.523 835.892 246.076 823.279C246.629 810.665 236.862 799.994 224.261 799.443Z" fill="#CFDAE6"/>
<path opacity="0.4" d="M70.8504 674.885C56.9898 674.279 45.2607 685.035 44.6527 698.91C44.0447 712.785 54.7881 724.524 68.6487 725.13C82.5094 725.736 94.2385 714.979 94.8464 701.104C95.4544 687.23 84.711 675.491 70.8504 674.885Z" stroke="#CFDAE6"/>
<path opacity="0.5" d="M223.761 810.862C217.461 810.587 212.129 815.476 211.853 821.783C211.577 828.09 216.46 833.426 222.76 833.701C229.061 833.976 234.392 829.087 234.668 822.78C234.945 816.474 230.061 811.138 223.761 810.862Z" fill="#BACAD9"/>
<path fill-rule="evenodd" clip-rule="evenodd" d="M223.76 810.862L222.76 833.701C229.06 833.977 234.392 829.088 234.668 822.781C234.944 816.474 230.061 811.138 223.76 810.862Z" fill="#BACAD9"/>
<g opacity="0.45">
<path opacity="0.45" d="M70.0499 693.155C66.2696 692.99 63.0707 695.924 62.9048 699.708C62.7389 703.491 65.6689 706.693 69.4492 706.858C73.2294 707.023 76.4284 704.09 76.5943 700.306C76.7602 696.522 73.8301 693.32 70.0499 693.155Z" fill="#E6A1A6"/>
<path opacity="0.45" fill-rule="evenodd" clip-rule="evenodd" d="M70.0494 693.155C73.8298 693.32 76.76 696.522 76.5941 700.306C76.4282 704.09 73.2291 707.024 69.4487 706.858L70.0494 693.155Z" fill="#E6A1A6"/>
</g>
<path d="M28.2129 695.902C27.2679 695.86 26.4682 696.594 26.4267 697.54C26.3853 698.486 27.1178 699.286 28.0628 699.328C29.0078 699.369 29.8075 698.635 29.849 697.689C29.8904 696.743 29.1579 695.943 28.2129 695.902Z" fill="#CFDAE6"/>
<path opacity="0.35" d="M70.98 658.871C70.0349 658.83 69.2352 659.563 69.1938 660.509C69.1523 661.455 69.8848 662.255 70.8299 662.297C71.7749 662.338 72.5746 661.605 72.6161 660.659C72.6575 659.713 71.925 658.912 70.98 658.871Z" fill="#E0B4B7"/>
<path opacity="0.35" d="M67.0587 735.358C65.7987 735.303 64.7324 736.281 64.6771 737.543C64.6219 738.804 65.5985 739.871 66.8586 739.926C68.1187 739.981 69.1849 739.003 69.2402 737.742C69.2955 736.481 68.3188 735.413 67.0587 735.358Z" fill="#E0B4B7"/>
<path opacity="0.8" d="M223.425 821.409L77.8283 705.951" stroke="#CFDAE6"/>
</svg>
